HIERARCHY
ROOT hip
{
	OFFSET 0.000000 0.000000 0.000000 
	CHANNELS 6 Xposition Yposition Zposition Xrotation Zrotation Yrotation
	JOINT abdomen
	{
		OFFSET 0.000000 3.402643 0.000000 
		CHANNELS 3 Xrotation Zrotation Yrotation
		JOINT chest
		{
			OFFSET 0.000000 8.438565 -0.680529 
			CHANNELS 3 Xrotation Zrotation Yrotation
			JOINT neck
			{
				OFFSET 0.000000 10.207942 -0.272212 
				CHANNELS 3 Xrotation Zrotation Yrotation
				JOINT head
				{
					OFFSET 0.000000 3.130431 0.000000 
					CHANNELS 3 Xrotation Zrotation Yrotation
					End Site
					{
						OFFSET 0.000000 3.130435 0.000000 
					}
				}
			}
			JOINT lCollar
			{
				OFFSET 3.470700 6.669187 -0.816635 
				CHANNELS 3 Yrotation Zrotation Xrotation
				JOINT lShldr
				{
					OFFSET 3.198488 0.000000 0.000000 
					CHANNELS 3 Zrotation Yrotation Xrotation
					JOINT lForeArm
					{
						OFFSET 10.139888 0.000000 0.000000 
						CHANNELS 3 Yrotation Zrotation Xrotation
						JOINT lHand
						{
							OFFSET 8.370511 0.000000 0.000000 
							CHANNELS 3 Zrotation Yrotation Xrotation
							End Site
							{
								OFFSET 4.083176 0.000000 0.000000 
							}
						}
					}
				}
			}
			JOINT rCollar
			{
				OFFSET -3.470700 6.669187 -0.816635 
				CHANNELS 3 Yrotation Zrotation Xrotation
				JOINT rShldr
				{
					OFFSET -3.198488 0.000000 0.000000 
					CHANNELS 3 Zrotation Yrotation Xrotation
					JOINT rForeArm
					{
						OFFSET -10.139888 0.000000 0.000000 
						CHANNELS 3 Yrotation Zrotation Xrotation
						JOINT rHand
						{
							OFFSET -8.370511 0.000000 0.000000 
							CHANNELS 3 Zrotation Yrotation Xrotation
							End Site
							{
								OFFSET -4.083176 0.000000 0.000000 
							}
						}
					}
				}
			}
		}
	}
	JOINT lThigh
	{
		OFFSET 5.308129 -1.633274 1.361059 
		CHANNELS 3 Xrotation Zrotation Yrotation
		JOINT lShin
		{
			OFFSET -2.041588 -20.007561 0.000000 
			CHANNELS 3 Xrotation Zrotation Yrotation
			JOINT lFoot
			{
				OFFSET 0.000000 -19.190928 -1.224953 
				CHANNELS 3 Xrotation Yrotation Zrotation
				End Site
				{
					OFFSET 0.000000 -2.449906 4.627600 
				}
			}
		}
	}
	JOINT rThigh
	{
		OFFSET -5.308129 -1.633274 1.361059 
		CHANNELS 3 Xrotation Zrotation Yrotation
		JOINT rShin
		{
			OFFSET 2.041588 -20.007561 0.000000 
			CHANNELS 3 Xrotation Zrotation Yrotation
			JOINT rFoot
			{
				OFFSET 0.000000 -19.190928 -1.224953 
				CHANNELS 3 Xrotation Yrotation Zrotation
				End Site
				{
					OFFSET 0.000000 -2.449906 4.627600 
				}
			}
		}
	}
}
MOTION
Frames: 11
Frame Time: 0.016667
-5.399436 58.880432 40.384399 -5.097700 -0.243175 65.051003 -26.239799 -0.653905 -4.737840 9.903760 2.255410 -2.523410 10.583496 11.529565 -15.814374 6.230400 11.471500 -7.978340 2.000000 -2.000000 0.000000 97.737503 -48.711498 30.173201 29.961300 -0.333295 0.068338 -179.895996 -179.875000 -7.927540 -2.000000 2.000000 0.000000 -63.243698 47.297901 53.830002 -63.799400 0.275212 0.122675 -0.055329 0.017250 -143.093994 -9.875245 7.957345 -4.120028 31.102970 3.351360 2.132571 22.381950 -4.808301 0.519033 -11.472120 8.160513 2.901103 27.876963 -2.562595 -2.196904 28.717113 -9.742444 3.438823 
-5.571256 59.743210 41.052700 -5.498110 -0.281900 66.306396 -26.289200 -0.600273 -4.732730 10.109400 2.199290 -2.504720 10.764746 11.516201 -16.127140 6.330850 11.548600 -8.139460 2.000000 -2.000000 0.000000 97.325897 -48.958099 31.383600 29.805000 -0.333480 0.068014 -179.895996 -179.876007 -7.732220 -2.000000 2.000000 0.000000 -66.124100 45.098499 52.290100 -56.797401 0.289716 0.114401 -0.054466 0.004649 -138.582001 -9.828348 8.058271 -3.376841 31.519312 3.317704 2.139239 19.700720 -4.278176 0.027066 -11.248740 9.036104 2.638786 27.310102 -2.524623 -2.159119 26.955639 -10.525894 3.451820 
-5.726891 60.472454 41.728977 -5.752110 -0.417808 67.708099 -26.415501 -0.758381 -4.711260 10.336300 1.874100 -2.486080 11.232478 11.296652 -16.273874 6.531270 11.644100 -8.252440 2.000000 -2.000000 0.000000 96.828201 -49.712502 32.622200 30.078400 -0.333155 0.068580 0.105513 -0.125808 171.438004 -2.000000 2.000000 0.000000 -68.986298 42.966599 50.330399 -48.662601 0.305149 0.102655 -0.054698 -0.009811 -133.416000 -9.916601 8.140985 -2.897869 31.736109 3.317137 2.156308 16.654011 -3.685960 -0.447235 -11.170012 9.757979 2.788910 26.596561 -2.491819 -2.144794 25.110626 -10.495970 3.069775 
-5.880557 61.079865 42.389973 -6.006130 -0.543873 69.246696 -26.611401 -1.106800 -4.616200 10.437200 1.201720 -2.450740 11.662873 11.024806 -16.369614 6.701220 11.681300 -8.351900 2.000000 -2.000000 0.000000 96.351303 -50.769402 33.733299 30.576500 -0.332555 0.069605 0.108412 -0.128049 170.128998 -2.000000 2.000000 0.000000 -71.751801 40.931702 47.999500 -39.931999 0.319684 0.087759 -0.056223 -0.014371 -128.268997 -10.081921 8.216105 -2.791777 31.914848 3.303308 2.170618 13.694311 -3.306147 -0.799566 -11.135063 10.328845 2.898460 25.932579 -2.448077 -2.117815 23.327702 -10.110996 2.543194 
-6.046583 61.573593 43.030861 -6.338230 -0.592062 70.876297 -26.850500 -1.517390 -4.411120 10.351400 0.307556 -2.350290 11.842753 10.972116 -16.558023 6.701220 11.681300 -8.488620 2.000000 -2.000000 0.000000 95.885201 -52.021500 34.805000 31.152700 -0.331849 0.070785 0.110896 -0.129887 169.026001 -2.000000 2.000000 0.000000 -74.098396 39.237999 45.375198 -31.777700 0.331071 0.072001 -0.059099 -0.028794 -123.015999 -10.238383 8.373697 -2.854911 32.142365 3.300954 2.206456 11.347684 -3.119410 -1.012343 -11.079353 10.815684 2.812950 25.513479 -2.415568 -2.108819 21.646191 -9.644523 2.095308 
-6.235400 61.949810 43.667820 -6.699430 -0.455850 72.514503 -27.054100 -1.919820 -4.129720 10.175300 -0.547529 -2.233680 11.904249 11.243098 -16.848886 6.562500 11.760900 -8.690700 2.000000 -2.000000 0.000000 95.272400 -53.401402 36.276901 31.797199 -0.331046 0.072097 0.111962 -0.130653 168.557007 -2.000000 2.000000 0.000000 -75.978699 38.021000 41.855499 -25.215099 0.338537 0.058246 -0.064593 -0.046521 -116.385002 -10.266308 8.633180 -2.872610 32.429436 3.277683 2.206642 9.815973 -3.096323 -1.142639 -10.830948 11.185275 2.657056 25.220652 -2.396569 -2.100428 20.291754 -9.279940 1.729020 
-6.447944 62.208752 44.314102 -6.962900 -0.106630 74.143898 -27.181601 -2.359400 -3.837650 10.017000 -1.238520 -2.113390 11.927611 11.652640 -17.192787 6.363840 11.841100 -8.922720 2.000000 -2.000000 0.000000 94.462997 -54.801800 38.346298 32.539398 -0.330104 0.073596 0.111118 -0.130047 168.927994 -2.000000 2.000000 0.000000 -77.305099 37.269798 36.977798 -20.732700 0.342711 0.048401 -0.074134 -0.067335 -108.200996 -10.091523 8.835220 -2.759915 32.742111 3.296787 2.218307 9.053745 -3.319782 -1.200272 -10.561552 11.401674 2.648541 25.441923 -2.435495 -2.085119 19.117649 -9.154147 1.540870 
-6.680563 62.355465 44.966675 -7.080220 0.358573 75.756203 -27.220699 -2.808950 -3.627580 9.946560 -1.679780 -2.058560 11.896768 12.014147 -17.565716 6.174460 11.862400 -9.155390 2.000000 -2.000000 0.000000 93.260399 -56.037102 41.018101 33.232800 -0.329205 0.074985 0.107737 -0.127537 170.432007 -2.000000 2.000000 0.000000 -78.201698 36.839699 31.783300 -18.301001 0.344649 0.042933 -0.083993 -0.083090 -101.560997 -9.794737 8.951922 -2.692022 32.925121 3.330692 2.216151 8.936430 -3.718336 -1.188801 -10.242909 11.418238 2.819865 25.853115 -2.459872 -2.121822 18.386530 -9.209526 1.456508 
-6.928560 62.393211 45.610371 -7.178360 0.755749 77.356003 -27.178600 -3.185950 -3.555000 9.994060 -1.910450 -2.056140 11.895947 12.345730 -17.867228 6.024880 11.873600 -9.343430 2.000000 -2.000000 0.000000 91.487999 -56.950802 44.141399 33.740601 -0.328537 0.075996 -179.897995 -179.876999 -6.950980 -2.000000 2.000000 0.000000 -78.733299 36.579300 28.633499 -17.324400 0.345362 0.040714 -0.085142 -0.084689 -100.857002 -9.578945 9.085079 -2.811966 33.149105 3.354185 2.230277 9.125515 -4.131948 -1.140460 -10.047477 11.429094 2.969512 26.477489 -2.494826 -2.118368 17.985571 -9.399274 1.495811 
-7.184916 62.311768 46.242615 -7.413310 1.026510 78.889900 -27.103701 -3.403820 -3.555290 10.091400 -1.968680 -2.087830 11.964096 12.881184 -18.092487 5.866170 11.982400 -9.489410 2.000000 -2.000000 0.000000 88.821198 -57.387100 48.113701 34.131199 -0.328016 0.076769 -179.904007 -179.882004 -4.158000 -2.000000 2.000000 0.000000 -78.849998 36.354698 28.663200 -17.148600 0.345486 0.040314 -0.076885 -0.072157 -106.219002 -9.389053 9.421736 -3.044732 33.451359 3.371423 2.222410 9.325583 -4.551969 -1.092408 -9.930520 11.538601 3.074077 27.073647 -2.534228 -2.155584 17.946491 -9.624703 1.563887 
-7.440689 62.099110 46.858227 -7.843500 1.189940 80.324402 -27.024599 -3.430840 -3.598960 10.228400 -1.940720 -2.117300 11.890639 13.631843 -18.375889 5.637840 12.140400 -9.648960 2.000000 -2.000000 0.000000 85.220100 -57.326199 53.061901 34.609699 -0.327372 0.077711 -179.908005 -179.886002 -2.195120 -2.000000 2.000000 0.000000 -78.494499 36.164398 31.071699 -17.422100 0.345292 0.040936 -0.068226 -0.055404 -112.957001 -9.375230 9.983467 -3.303208 33.984734 3.357587 2.271886 9.528226 -4.939389 -1.022854 -9.788207 11.803432 3.032861 27.465540 -2.545673 -2.170973 18.139652 -9.840879 1.642508 
